<svg version="1.1"
  xmlns="http://www.w3.org/2000/svg"
  xmlns:xlink="http://www.w3.org/1999/xlink">
  <ellipse cx="256" cy="74.667" rx="213.333" ry="74.667"/>
  <path d="M256,170.667c-86.741,0-174.165-18.283-213.333-53.547V192v10.667c0,35.307,87.616,74.667,213.333,74.667 c125.739,0,213.333-39.36,213.333-74.667V192v-74.88C430.165,152.384,342.72,170.667,256,170.667z"/>
  <path d="M256,298.667c-97.323,0-177.003-21.888-213.333-54.869v65.536C42.667,344.64,130.283,384,256,384 c125.739,0,213.333-39.36,213.333-74.667v-65.536C433.003,276.779,353.323,298.667,256,298.667z"/>
  <path d="M256,405.333c-97.323,0-177.003-21.888-213.333-54.869V416c0,53.824,93.717,96,213.333,96s213.333-42.176,213.333-96 v-65.536C433.003,383.445,353.323,405.333,256,405.333z"/>
</svg>